<?xml version="1.0" encoding="utf-8"?>
<!-- Generator: Adobe Illustrator 24.1.3, SVG Export Plug-In . SVG Version: 6.00 Build 0)  -->
<svg version="1.1" id="Layer_1" xmlns="http://www.w3.org/2000/svg" xmlns:xlink="http://www.w3.org/1999/xlink" x="0px" y="0px"
	 viewBox="0 0 462 352" style="enable-background:new 0 0 462 352;" xml:space="preserve">
<style type="text/css">
	.st0{fill:#C69C6D;}
	.st1{fill:#754C24;}
	.st2{fill:#FFFFFF;}
	.st3{fill:#00A99D;}
	.st4{fill:none;stroke:#603813;stroke-miterlimit:10;}
	.st5{fill:#F2F2F2;}
</style>
<g>
	<g>
		<path class="st0" d="M52.35,150.31c-0.35,0-0.74,0.05-1.18,0.16c-3.98,5.64-5.04,12.14-2.02,19.37c0.1,0.24,0.21,0.49,0.31,0.72
			c0,0.01,0.01,0.01,0.01,0.01c0.35,0.84,0.73,1.63,1.14,2.41c3.46-0.25-0.46-3.58-0.46-7.65
			C50.15,161.09,56.59,150.31,52.35,150.31z M126,150c-8.84,0-16,4.12-16,9.2c0,5.09,7.16,9.21,16,9.21s16.5-3.83,16.5-8.91
			C142.5,154.42,134.84,150,126,150z M190.26,25.81c-0.97-0.6-2.13-1.06-3.42-1.38c-17.09,3.81-39.8,20.29-43.35,48.54
			c-3.64,28.97-4.92,40.59-6.81,53.49c-3.59-0.3-7.26-0.46-11-0.46c-0.14,0.65-0.28,1.32-0.43,2h0.33c3.77,0,7.48,0.16,11.1,0.46
			c1.89-12.9,3.17-24.52,6.81-53.49c3.79-30.2,29.48-46.95,46.8-49.14C190.28,25.82,190.27,25.82,190.26,25.81z"/>
	</g>
	<g>
		<path class="st0" d="M399.07,247.43c-0.17-1.37-0.37-2.73-0.62-4.09c-7.04-38.5-47.1-71.43-122.77-75.1
			c-26.8-1.3-52.09-0.9-73.69,2.14c0.01-0.18,0.01-0.36,0.01-0.54c0-15.74-14.47-29.55-36.19-37.27c9.56-9.02,19.25-20.43,26-32.45
			c19-33.81,23.58-67.29,10.23-74.79c-2.87-1.61-7-2.11-11.75-1.5c-1.12,0.14-2.27,0.34-3.45,0.6c1.29,0.32,2.45,0.78,3.42,1.38
			c0.01,0.01,0.02,0.01,0.03,0.02c-17.32,2.19-43.01,18.94-46.8,49.14c-3.64,28.97-4.92,40.59-6.81,53.49
			c-3.62-0.3-7.33-0.46-11.1-0.46h-0.33c0.15-0.68,0.29-1.35,0.43-2h-0.43c-30.8,0.07-63.25,9.1-74.08,24.47
			c0.44-0.11,0.83-0.16,1.18-0.16c4.24,0-2.2,10.78-2.2,15.02c0,4.07,3.92,7.4,0.46,7.65c0.93,1.84,1.96,3.53,3.1,5.09
			c10.85,14.93,31.26,18.56,71.87,35.62c2.74,1.15,5.45,2.05,8.14,2.72c-2.72,20.2,3.12,33.44,14.58,43.32
			c-3.29,3.82-4.35,9.84-1.07,18.54c5.95,15.76-14.28,31.4,1.48,34.18c2.44,0.43,5.72-1.22,9.13-3.77
			c-3.58,9.84-8.53,17.51,2.64,19.58c9.13,1.69,28.97-22.85,30.43-24.21c0.42-6.48,1.32-16.96,2.63-22.18
			c19.47,6.76,41.77,13.59,63.94,24.09c3.53,1.67,7.09,3.11,10.67,4.32c-5.05,2.1-8.21,4.31-7.75,8.08
			c1.16,9.6,5.98,7.84,42.31,12.51c16.84,2.16,31.15-2.91,36.23-12.22c21.86-4.63,38.06-12.36,38.06-25.86
			c0-1.55-0.22-3.1-0.65-4.63c2.98-2.47,5.73-5.04,8.19-7.67C394.74,269.66,400.34,257.85,399.07,247.43z M126,168.41
			c-8.84,0-16-4.12-16-9.21c0-5.08,7.16-9.2,16-9.2s16.5,4.42,16.5,9.5C142.5,164.58,134.84,168.41,126,168.41z M284.12,303.94
			c0,0,0.01,0,0.01-0.01c0.05,0.08,0.11,0.17,0.17,0.25C284.24,304.1,284.18,304.02,284.12,303.94z"/>
	</g>
	<g>
		<path class="st1" d="M190.29,25.83c-17.32,2.19-43.01,18.94-46.8,49.14c-3.64,28.97-4.92,40.59-6.81,53.49
			c-3.62-0.3-7.33-0.46-11.1-0.46h-0.33c0.15-0.68,0.29-1.35,0.43-2c4.09-19.27,4.92-25.78,10.85-60.35
			c5.32-31,36.28-44.63,50.31-41.22c1.29,0.32,2.45,0.78,3.42,1.38C190.27,25.82,190.28,25.82,190.29,25.83z"/>
	</g>
	<path class="st2" d="M142.5,159.5c0,5.08-7.66,8.91-16.5,8.91s-16-4.12-16-9.21c0-5.08,7.16-9.2,16-9.2S142.5,154.42,142.5,159.5z"
		/>
	<g>
		<path class="st2" d="M402,286.5c-6.69,0-12.96-2.15-17.73-6.05c10.46-11.24,15.53-22.97,14.3-33.08
			c-0.16-1.29-0.33-2.48-0.53-3.61c1.33-0.17,2.66-0.26,3.97-0.26c14.06,0,25.5,9.64,25.5,21.5S416.06,286.5,402,286.5z"/>
		<path class="st0" d="M402,244c13.79,0,25,9.42,25,21s-11.21,21-25,21c-6.38,0-12.37-1.98-17-5.61
			c10.31-11.23,15.3-22.95,14.06-33.08c-0.14-1.11-0.28-2.13-0.45-3.11C399.75,244.07,400.88,244,402,244 M402,243
			c-1.55,0-3.07,0.12-4.55,0.34c0.25,1.36,0.45,2.72,0.62,4.09c1.27,10.42-4.33,22.23-14.53,33.06c4.7,4.02,11.24,6.51,18.46,6.51
			c14.36,0,26-9.85,26-22C428,252.85,416.36,243,402,243L402,243z"/>
	</g>
	<ellipse class="st3" cx="119" cy="159.4" rx="8" ry="4.6"/>
	<path class="st4" d="M49.5,164.5c-2.35,22.41,17.62,13.59,25.16,9.23"/>
	<path class="st1" d="M50.15,165.33c0,4.07,3.92,7.4,0.46,7.65c-0.14,0.01-0.29,0.02-0.46,0.02c-0.07,0-0.14,0-0.21-0.01
		C45.63,172.8,37,167.17,37,163c0-3.89,9.36-11.39,14.17-12.53c0.44-0.11,0.83-0.16,1.18-0.16
		C56.59,150.31,50.15,161.09,50.15,165.33z"/>
</g>
<g>
	<path class="st5" d="M-308,366.93c0,0.01-0.01,0.01-0.01,0.01c0.06,0.08,0.12,0.16,0.18,0.24
		C-307.89,367.1-307.95,367.01-308,366.93z"/>
	<path class="st1" d="M-308,366.93c0,0.01-0.01,0.01-0.01,0.01c0.06,0.08,0.12,0.16,0.18,0.24
		C-307.89,367.1-307.95,367.01-308,366.93L-308,366.93z"/>
</g>
</svg>
