<?xml version="1.0" encoding="utf-8"?>
<!-- Generator: Adobe Illustrator 24.1.3, SVG Export Plug-In . SVG Version: 6.00 Build 0)  -->
<svg version="1.1" id="Layer_1" xmlns="http://www.w3.org/2000/svg" xmlns:xlink="http://www.w3.org/1999/xlink" x="0px" y="0px"
	 viewBox="0 0 462 352" style="enable-background:new 0 0 462 352;" xml:space="preserve">
<style type="text/css">
	.st0{fill:#C69C6D;}
	.st1{fill:#754C24;}
	.st2{fill:#FFFFFF;}
	.st3{fill:#00A99D;}
	.st4{fill:none;stroke:#603813;stroke-miterlimit:10;}
	.st5{fill:#F2F2F2;}
</style>
<g>
	<g>
		<path class="st0" d="M414.85,165.33c0,4.07-3.92,7.4-0.46,7.65c0.41-0.78,0.79-1.57,1.14-2.41c0,0,0.01,0,0.01-0.01
			c0.1-0.23,0.21-0.48,0.31-0.72c3.02-7.23,1.96-13.73-2.02-19.37c-0.44-0.11-0.83-0.16-1.18-0.16
			C408.41,150.31,414.85,161.09,414.85,165.33z M322.5,159.5c0,5.08,7.66,8.91,16.5,8.91s16-4.12,16-9.21c0-5.08-7.16-9.2-16-9.2
			S322.5,154.42,322.5,159.5z M274.71,25.83c17.32,2.19,43.01,18.94,46.8,49.14c3.64,28.97,4.92,40.59,6.81,53.49
			c3.62-0.3,7.33-0.46,11.1-0.46h0.33c-0.15-0.68-0.29-1.35-0.43-2c-3.74,0-7.41,0.16-11,0.46c-1.89-12.9-3.17-24.52-6.81-53.49
			c-3.55-28.25-26.26-44.73-43.35-48.54c-1.29,0.32-2.45,0.78-3.42,1.38C274.73,25.82,274.72,25.82,274.71,25.83z"/>
	</g>
	<g>
		<path class="st0" d="M80.46,280.49c2.46,2.63,5.21,5.2,8.19,7.67c-0.43,1.53-0.65,3.08-0.65,4.63c0,13.5,16.2,21.23,38.06,25.86
			c5.08,9.31,19.39,14.38,36.23,12.22c36.33-4.67,41.15-2.91,42.31-12.51c0.46-3.77-2.7-5.98-7.75-8.08
			c3.58-1.21,7.14-2.65,10.67-4.32c22.17-10.5,44.47-17.33,63.94-24.09c1.31,5.22,2.21,15.7,2.63,22.18
			c1.46,1.36,21.3,25.9,30.43,24.21c11.17-2.07,6.22-9.74,2.64-19.58c3.41,2.55,6.69,4.2,9.13,3.77
			c15.76-2.78-4.47-18.42,1.48-34.18c3.28-8.7,2.22-14.72-1.07-18.54c11.46-9.88,17.3-23.12,14.58-43.32
			c2.69-0.67,5.4-1.57,8.14-2.72c40.61-17.06,61.02-20.69,71.87-35.62c1.14-1.56,2.17-3.25,3.1-5.09c-3.46-0.25,0.46-3.58,0.46-7.65
			c0-4.24-6.44-15.02-2.2-15.02c0.35,0,0.74,0.05,1.18,0.16C403,135.1,370.55,126.07,339.75,126h-0.43c0.14,0.65,0.28,1.32,0.43,2
			h-0.33c-3.77,0-7.48,0.16-11.1,0.46c-1.89-12.9-3.17-24.52-6.81-53.49c-3.79-30.2-29.48-46.95-46.8-49.14
			c0.01-0.01,0.02-0.01,0.03-0.02c0.97-0.6,2.13-1.06,3.42-1.38c-1.18-0.26-2.33-0.46-3.45-0.6c-4.75-0.61-8.88-0.11-11.75,1.5
			c-13.35,7.5-8.77,40.98,10.23,74.79c6.75,12.02,16.44,23.43,26,32.45C277.47,140.29,263,154.1,263,169.84c0,0.18,0,0.36,0.01,0.54
			c-21.6-3.04-46.89-3.44-73.69-2.14c-75.67,3.67-115.73,36.6-122.77,75.1c-0.25,1.36-0.45,2.72-0.62,4.09
			C64.66,257.85,70.26,269.66,80.46,280.49z M322.5,159.5c0-5.08,7.66-9.5,16.5-9.5s16,4.12,16,9.2c0,5.09-7.16,9.21-16,9.21
			S322.5,164.58,322.5,159.5z M180.7,304.18c0.06-0.08,0.12-0.17,0.17-0.25c0,0.01,0.01,0.01,0.01,0.01
			C180.82,304.02,180.76,304.1,180.7,304.18z"/>
	</g>
	<g>
		<path class="st1" d="M274.71,25.83c17.32,2.19,43.01,18.94,46.8,49.14c3.64,28.97,4.92,40.59,6.81,53.49
			c3.62-0.3,7.33-0.46,11.1-0.46h0.33c-0.15-0.68-0.29-1.35-0.43-2c-4.09-19.27-4.92-25.78-10.85-60.35
			c-5.32-31-36.28-44.63-50.31-41.22c-1.29,0.32-2.45,0.78-3.42,1.38C274.73,25.82,274.72,25.82,274.71,25.83z"/>
	</g>
	<path class="st2" d="M322.5,159.5c0,5.08,7.66,8.91,16.5,8.91s16-4.12,16-9.21c0-5.08-7.16-9.2-16-9.2S322.5,154.42,322.5,159.5z"
		/>
	<g>
		<path class="st2" d="M63,286.5c-14.06,0-25.5-9.64-25.5-21.5s11.44-21.5,25.5-21.5c1.31,0,2.64,0.09,3.97,0.26
			c-0.2,1.13-0.37,2.31-0.53,3.61c-1.23,10.1,3.84,21.83,14.3,33.08C75.96,284.35,69.69,286.5,63,286.5z"/>
		<path class="st0" d="M63,244c1.12,0,2.25,0.07,3.39,0.2c-0.16,0.98-0.31,2.01-0.45,3.11c-1.23,10.13,3.75,21.85,14.07,33.08
			c-4.63,3.62-10.62,5.61-17,5.61c-13.79,0-25-9.42-25-21S49.21,244,63,244 M63,243c-14.36,0-26,9.85-26,22c0,12.15,11.64,22,26,22
			c7.22,0,13.76-2.49,18.46-6.51c-10.2-10.83-15.8-22.64-14.53-33.06c0.17-1.37,0.37-2.73,0.62-4.09C66.07,243.12,64.55,243,63,243
			L63,243z"/>
	</g>
	<ellipse class="st3" cx="346" cy="159.4" rx="8" ry="4.6"/>
	<path class="st4" d="M415.5,164.5c2.35,22.41-17.62,13.59-25.16,9.23"/>
	<path class="st1" d="M414.85,165.33c0,4.07-3.92,7.4-0.46,7.65c0.14,0.01,0.29,0.02,0.46,0.02c0.07,0,0.14,0,0.21-0.01
		c4.31-0.19,12.94-5.82,12.94-9.99c0-3.89-9.36-11.39-14.17-12.53c-0.44-0.11-0.83-0.16-1.18-0.16
		C408.41,150.31,414.85,161.09,414.85,165.33z"/>
</g>
<g>
	<path class="st5" d="M-308,366.93c0,0.01-0.01,0.01-0.01,0.01c0.06,0.08,0.12,0.16,0.18,0.24
		C-307.89,367.1-307.95,367.01-308,366.93z"/>
	<path class="st1" d="M-308,366.93c0,0.01-0.01,0.01-0.01,0.01c0.06,0.08,0.12,0.16,0.18,0.24
		C-307.89,367.1-307.95,367.01-308,366.93L-308,366.93z"/>
</g>
</svg>
