<?xml version="1.0" encoding="utf-8"?>
<!-- Generator: Adobe Illustrator 24.1.3, SVG Export Plug-In . SVG Version: 6.00 Build 0)  -->
<svg version="1.1" id="Layer_1" xmlns="http://www.w3.org/2000/svg" xmlns:xlink="http://www.w3.org/1999/xlink" x="0px" y="0px"
	 viewBox="0 0 221 223" style="enable-background:new 0 0 221 223;" xml:space="preserve">
<style type="text/css">
	.st0{fill:#D40029;}
</style>
<path class="st0" d="M183.04,98.61c-15.82,37.03-39.93,70.48-70.05,97.2c-0.33-0.25-0.65-0.5-0.98-0.75
	c-0.33,0.25-0.65,0.5-0.98,0.75c-30.12-26.72-54.24-60.17-70.06-97.2c-7-16.38-11.84-36.97-0.49-50.71
	c8.29-10.03,22.79-12.71,35.72-11.23c12.92,1.49,25.4,6.5,35.8,14.3c10.41-7.8,22.89-12.81,35.82-14.3
	c12.93-1.48,27.42,1.2,35.71,11.23C194.88,61.64,190.05,82.23,183.04,98.61z"/>
</svg>
