<?xml version="1.0" encoding="utf-8"?>
<!-- Generator: Adobe Illustrator 24.1.3, SVG Export Plug-In . SVG Version: 6.00 Build 0)  -->
<svg version="1.1" id="Layer_1" xmlns="http://www.w3.org/2000/svg" xmlns:xlink="http://www.w3.org/1999/xlink" x="0px" y="0px"
	 viewBox="0 0 268 325" style="enable-background:new 0 0 268 325;" xml:space="preserve">
<style type="text/css">
	.st0{fill:#FF7BAC;}
	.st1{fill:none;}
	.st2{fill:#534741;}
	.st3{fill:#998675;}
	.st4{fill:#FFFF00;stroke:#FFFFFF;stroke-miterlimit:10;}
	.st5{fill:#F7931E;}
	.st6{stroke:#FFFFFF;stroke-miterlimit:10;}
	.st7{fill:#FFFFFF;}
</style>
<path class="st0" d="M929,209L929,209z"/>
<path class="st0" d="M554,468"/>
<line class="st1" x1="383.72" y1="261.04" x2="366.28" y2="282.96"/>
<line class="st1" x1="386" y1="295" x2="390" y2="310"/>
<path class="st2" d="M108.48,294.83c-8.29,3.88-33.55-33.65-47-57c-20.95-36.36-33.15-57.54-25-79c5.95-15.67,23.91-34.55,45-31
	c16.23,2.73,29.88,17.99,33,38c-7.18,54.8-6.37,89.65-4,112C111.06,283.29,112.27,293.06,108.48,294.83z"/>
<path class="st2" d="M156,293c8.29,3.88,33.55-33.65,47-57c20.95-36.36,33.15-57.54,25-79c-5.95-15.67-23.91-34.55-45-31
	c-16.23,2.73-29.88,17.99-33,38c7.18,54.8,6.37,89.65,4,112C153.42,281.46,152.21,291.22,156,293z"/>
<path class="st3" d="M142.82,278.48c-5.92,0.27-10.54,0.14-14.08-0.4c-2.53,0.1-5.43,0.07-8.74-0.08c-45.84-2.1-79.55-120.93-53-140
	c4.76-3.42,9.93-3.24,20.64-1.63C76.73,120.1,70,100.54,70,86.81c0-14.67,7.67-24.44,19.9-30.4c-7.63,0.2-15.27,0.4-22.9,0.59
	c3.53-11.86,7.15-24.05,11-37c8.26,10.62,16.53,21.25,24.79,31.87c8.57-2.12,18.34-3.07,28.71-3.07c7.91,0,15.47,0.56,22.41,1.76
	c8.07-10.52,16.16-21.04,24.23-31.56c3.62,12.33,7.24,24.67,10.86,37c-5.95-0.15-11.87-0.31-17.8-0.46
	C184.54,61.39,193,71.4,193,86.81c0,13.36-6.36,32.23-16.76,48.23c11.19-2.83,17.03-4.44,21.76-1.04
	C224.55,153.08,188.66,276.38,142.82,278.48z"/>
<circle class="st4" cx="159.5" cy="79.5" r="13"/>
<path class="st0" d="M251,275"/>
<polygon class="st5" points="128.88,120 142,94 115.75,94 "/>
<circle class="st6" cx="159" cy="79" r="6.5"/>
<path class="st7" d="M167.5,133.62c-2.48-1.78-5.28-2.18-8.98-1.75c-1.39,2.57-3.31,4.65-6.64,5.89
	c-7.62,2.83-16.16,4.38-24.28,3.81c-0.56,0.13-1.13,0.21-1.73,0.18c-0.6-0.02-1.18-0.13-1.73-0.31c-3.63,0.31-7.26,0.27-10.77-0.26
	c-4.32-0.66-8.41-2.47-10.82-6.29c-3.69,0.07-6.43,0.85-9.03,2.72c-23.17,16.65-0.46,109.23,36.16,133.95
	C166.47,245.56,190.58,150.21,167.5,133.62z"/>
<circle class="st4" cx="101.5" cy="79.5" r="13"/>
<circle class="st6" cx="101" cy="79" r="6.5"/>
<path class="st2" d="M114.34,77.5H88.36c0.17-7.02,5.92-12.66,12.99-12.66C108.42,64.84,114.17,70.48,114.34,77.5z"/>
<path class="st2" d="M172.34,78h-25.98c0.17-7.02,5.92-12.66,12.99-12.66C166.42,65.34,172.17,70.98,172.34,78z"/>
</svg>
