<?xml version="1.0" encoding="utf-8"?>
<!-- Generator: Adobe Illustrator 24.1.3, SVG Export Plug-In . SVG Version: 6.00 Build 0)  -->
<svg version="1.1" id="Layer_1" xmlns="http://www.w3.org/2000/svg" xmlns:xlink="http://www.w3.org/1999/xlink" x="0px" y="0px"
	 viewBox="0 0 976 493" style="enable-background:new 0 0 976 493;" xml:space="preserve">
<style type="text/css">
	.st0{fill:#FFA63F;}
	.st1{fill:#DFC200;}
	.st2{fill:#C7B299;}
	.st3{fill:#DF6920;}
	.st4{fill:#009245;}
</style>
<ellipse class="st0" cx="741.05" cy="137.9" rx="124.86" ry="95.14"/>
<ellipse class="st1" cx="737.41" cy="152.86" rx="102.17" ry="80.18"/>
<path class="st2" d="M81.89,494.2c-3.83,0.09-5.87-3.58-3.28-5.91c60.86-54.78,117.96-78.23,160.8-89.31
	c44.91-11.61,73.41-9.41,124.24-32.42c42.86-19.41,51.44-34.03,91.44-42.63c42.82-9.21,51.14,3.65,91.15-6.87
	c42.05-11.05,46.51-28.84,85.73-39.72c25.46-7.06,85.36-20.26,131.56-32c4.87-1.24,7.86,4.1,3.56,6.36l-46.26,24.26
	c1.49,2.87-1.49-2.87,0,0c-3.78,2.99-15.09,14.29-22.54,19.08c-24.12,15.51-34.92,23.82-46.29,28.08
	c-50.71,19.01-43.43,38.8-100.62,63.22c-30.38,12.98-36.83,9.27-53.19,21.6c-30.85,23.26-68.69,27.03-72.09,27.05
	c-59.82,0.27-69.35,43.65-69.59,52.85c-0.05,2.01-1.83,3.73-4.3,3.79C235.31,494.45,199.73,491.33,81.89,494.2z"/>
<ellipse class="st3" cx="735.83" cy="172.07" rx="65.5" ry="56.97"/>
<path class="st4" d="M0,248c17.31-19.48,168.01-43.02,198.47-40.63c32.91,2.58,43.03,33.04,69.96,30.49
	c39.23-3.72,47.49-71.2,78.79-71.35c32.01-0.15,40.13,70.34,75.72,73.62c38.69,3.56,59.34-76.94,97.9-72.95
	c32.62,3.38,33.21,62.57,71.02,70.52c42.98,9.04,81.55-59.18,111.59-43.65c15.55,8.04,11.85,29.73,26,33.56
	c24.38,6.59,45.68-55,74.55-51.44c26.87,3.32,30.23,59.37,57.86,61.24c22.81,1.54,39.85-35.34,57.83-27.78
	c4.96,2.09,5.58,5.7,12.12,13.26c12.49,14.42,27.55,21.27,38.59,24.82"/>
</svg>
